<?xml version="1.0" encoding="utf-8"?>
<!-- Generator: Adobe Illustrator 27.9.0, SVG Export Plug-In . SVG Version: 6.00 Build 0)  -->
<svg version="1.1" id="Layer_1" xmlns="http://www.w3.org/2000/svg" xmlns:xlink="http://www.w3.org/1999/xlink" x="0px" y="0px"
	 viewBox="0 0 800 227.74" style="enable-background:new 0 0 800 227.74;" xml:space="preserve">
<style type="text/css">
	.st0{fill:#0ABD45;}
	.st1{fill:#FFFFFF;}
	.st2{fill:#0A2445;}
	.st3{fill:#0E6487;}
	.st4{fill:#0AD0DD;}
	.st5{opacity:0.5;fill:none;}
	.st6{fill:none;stroke:#00FF00;stroke-width:4;stroke-linecap:round;stroke-miterlimit:10;}
	.st7{fill:none;stroke:#00FF00;stroke-width:4;stroke-linecap:round;stroke-linejoin:round;stroke-miterlimit:10;}
	.st8{fill:none;stroke:#00FF00;stroke-miterlimit:10;}
	.st9{opacity:0.5;}
	.st10{fill:none;stroke:#00FF00;stroke-width:4;stroke-linejoin:round;stroke-miterlimit:10;}
</style>
<g>
	<path class="st1" d="M109.89,173.1l-15.76-33.59l-22.19,9.93c-1.39,0.62-2.96-8.55-2.96-8.55l13.06-27.15l-13.23-28.2l4.63-9.67
		L94.6,87.63l18.55-38.57l6.52,3.14l-18.74,38.95l15,8.34c1.16,0.64,1.87,1.87,1.86,3.2l-0.23,24.02c-0.01,1.41,0.6,1.95-0.69,2.53
		l-16.14,7.31l17.12,37.71l-3.82,1.88L109.89,173.1z M86.01,122.18l-7.99,16.62l13.05-5.84L86.01,122.18z M90.05,113.77L97.67,130
		l12.69-5.68l0.19-19.55l-12.75-7.09L90.05,113.77z M77.11,86.18l8.98,19.14l5.37-11.16L77.11,86.18z"/>
	<polygon class="st3" points="134.64,157.69 100.74,136.55 106.18,148.49 134.64,165.94 161.63,150.36 156.52,145.06 	"/>
	<polygon class="st3" points="134.04,181.36 116.46,171.21 121.1,182.25 134.04,189.71 176.11,165.42 170.94,160.06 	"/>
	<path class="st1" d="M288.11,80.92c4.61,0,8.54,0.44,11.78,1.32c3.24,0.88,5.88,2.27,7.92,4.19c2.03,1.91,3.5,4.38,4.41,7.42
		c0.91,3.03,1.36,6.73,1.36,11.1v14.1c0,7.4-1.38,12.97-4.14,16.7c-2.76,3.73-4.05,5.2-10.48,6.05l12.32,13.6
		c0.24,0.3,0.32,0.76,0.23,1.36c-0.09,0.61-0.56,0.91-1.41,0.91h-13.06c-0.79,0-1.34-0.09-1.64-0.27c-0.3-0.18-0.61-0.45-0.91-0.82
		l-12.11-13.51h-22.39c-4.61,0-8.52-0.42-11.74-1.27c-3.22-0.85-5.84-2.23-7.87-4.14c-2.03-1.91-3.52-4.4-4.46-7.46
		c-0.94-3.06-1.41-6.78-1.41-11.15v-14.1c0-4.37,0.47-8.07,1.41-11.1c0.94-3.03,2.43-5.5,4.46-7.42c2.03-1.91,4.65-3.31,7.87-4.19
		c3.21-0.88,7.13-1.32,11.74-1.32H288.11z M248.44,118.04c0,2.37,0.2,4.35,0.59,5.96c0.39,1.61,1.05,2.88,1.96,3.82
		c0.91,0.94,2.14,1.61,3.69,2c1.55,0.4,3.5,0.59,5.87,0.59h27.02c2.37,0,4.32-0.2,5.87-0.59c1.55-0.39,2.78-1.06,3.69-2
		c0.91-0.94,1.56-2.21,1.96-3.82c0.39-1.61,0.59-3.59,0.59-5.96v-12.1c0-2.37-0.2-4.35-0.59-5.96c-0.39-1.61-1.05-2.88-1.96-3.82
		c-0.91-0.94-2.14-1.61-3.69-2c-1.55-0.39-3.5-0.59-5.87-0.59h-27.02c-2.37,0-4.32,0.2-5.87,0.59c-1.55,0.39-2.78,1.06-3.69,2
		c-0.91,0.94-1.56,2.21-1.96,3.82c-0.4,1.61-0.59,3.59-0.59,5.96V118.04z"/>
	<path class="st1" d="M379.12,80.92c4.61,0,8.54,0.44,11.78,1.32c3.24,0.88,5.88,2.27,7.92,4.19c2.03,1.91,3.5,4.38,4.41,7.42
		c0.91,3.03,1.36,6.73,1.36,11.1v15.65c0,4.37-0.45,8.08-1.36,11.15c-0.91,3.06-2.38,5.55-4.41,7.46c-2.03,1.91-4.67,3.29-7.92,4.14
		c-3.25,0.85-7.17,1.27-11.78,1.27H351c-4.61,0-8.52-0.42-11.74-1.27c-3.22-0.85-5.84-2.23-7.87-4.14c-2.03-1.91-3.52-4.4-4.46-7.46
		c-0.94-3.06-1.41-6.78-1.41-11.15v-15.65c0-4.37,0.47-8.07,1.41-11.1c0.94-3.03,2.43-5.5,4.46-7.42c2.03-1.91,4.65-3.31,7.87-4.19
		c3.21-0.88,7.13-1.32,11.74-1.32H379.12z M339.44,119.59c0,2.37,0.2,4.35,0.59,5.96c0.39,1.61,1.05,2.88,1.96,3.82
		c0.91,0.94,2.14,1.61,3.69,2c1.55,0.39,3.5,0.59,5.87,0.59h27.02c2.37,0,4.32-0.2,5.87-0.59c1.55-0.39,2.78-1.06,3.69-2
		c0.91-0.94,1.56-2.21,1.96-3.82c0.39-1.61,0.59-3.59,0.59-5.96v-13.65c0-2.37-0.2-4.35-0.59-5.96c-0.39-1.61-1.05-2.88-1.96-3.82
		c-0.91-0.94-2.14-1.61-3.69-2c-1.55-0.39-3.5-0.59-5.87-0.59h-27.02c-2.37,0-4.32,0.2-5.87,0.59c-1.55,0.39-2.78,1.06-3.69,2
		c-0.91,0.94-1.56,2.21-1.96,3.82c-0.4,1.61-0.59,3.59-0.59,5.96V119.59z"/>
	<path class="st1" d="M467.93,80.92c6.97,0,11.98,1.58,15.01,4.73c3.03,3.16,4.55,7.83,4.55,14.01v5.19c0,5.22-1.06,9.34-3.18,12.38
		c-2.12,3.03-5.58,4.97-10.37,5.82l15.56,19.29c0.3,0.3,0.39,0.76,0.27,1.37c-0.12,0.61-0.61,0.91-1.46,0.91h-11.74
		c-0.79,0-1.34-0.09-1.64-0.27c-0.3-0.18-0.61-0.48-0.91-0.91l-14.38-18.93h-29.39v18.11c0,1.34-0.67,2-2,2h-9.83
		c-1.4,0-2.09-0.67-2.09-2V83.65c0-1.82,0.91-2.73,2.73-2.73H467.93z M430.26,113.4h34.85c3.09,0,5.28-0.67,6.55-2
		c1.28-1.33,1.91-3.37,1.91-6.1v-3.82c0-2.73-0.64-4.76-1.91-6.1c-1.27-1.33-3.46-2-6.55-2h-33.67c-0.79,0-1.18,0.36-1.18,1.09
		V113.4z"/>
	<path class="st1" d="M544.69,80.92c4.91,0,9.13,0.5,12.65,1.5c3.52,1,6.4,2.55,8.64,4.64c2.24,2.09,3.9,4.76,4.96,8.01
		c1.06,3.25,1.59,7.08,1.59,11.51v12.38c0,4.43-0.53,8.27-1.59,11.51c-1.06,3.25-2.71,5.91-4.96,8.01s-5.13,3.64-8.64,4.64
		c-3.52,1-7.73,1.5-12.65,1.5h-42.58c-1.82,0-2.73-0.91-2.73-2.73V83.65c0-1.82,0.91-2.73,2.73-2.73H544.69z M513.3,130.78
		c0,0.79,0.39,1.18,1.18,1.18h29.84c2.67,0,4.91-0.24,6.73-0.73c1.82-0.48,3.29-1.27,4.41-2.37c1.12-1.09,1.93-2.55,2.41-4.37
		c0.49-1.82,0.73-4.06,0.73-6.73v-10.01c0-2.67-0.24-4.91-0.73-6.73s-1.29-3.28-2.41-4.37c-1.12-1.09-2.59-1.88-4.41-2.37
		c-1.82-0.48-4.07-0.73-6.73-0.73h-29.84c-0.79,0-1.18,0.43-1.18,1.27V130.78z"/>
	<path class="st1" d="M700.35,80.92c0.97,0,1.7,0.36,2.18,1.09l24.29,30.84l23.87-30.84c0.49-0.73,1.21-1.09,2.18-1.09h11.92
		c0.49,0,0.82,0.2,1,0.59c0.18,0.4,0.12,0.8-0.18,1.23l-32.06,40.97v18.91c0,1.34-0.67,2-2,2h-9.83c-1.4,0-2.09-0.67-2.09-2V123.7
		l-32.3-40.97c-0.31-0.42-0.38-0.83-0.23-1.23c0.15-0.39,0.5-0.59,1.05-0.59H700.35z"/>
	<path class="st1" d="M595.59,80.92c1.33,0,2,0.67,2,2v59.69c0,1.34-0.67,2-2,2h-9.83c-1.4,0-2.09-0.67-2.09-2V82.92
		c0-1.33,0.7-2,2.09-2H595.59z"/>
	<path class="st1" d="M652.72,110.81l-37.52,42.04c-0.43,0.49-0.84,0.82-1.23,1c-0.39,0.18-0.99,0.27-1.77,0.27h-13.1
		c-0.79,0-1.23-0.29-1.32-0.86c-0.09-0.58,0.07-1.08,0.5-1.5l37.12-40.63l-25.55-27.84c-0.36-0.42-0.52-0.92-0.45-1.5
		c0.06-0.58,0.51-0.86,1.37-0.86h12.46c0.73,0,1.31,0.11,1.73,0.32c0.42,0.21,0.82,0.53,1.18,0.96L652.72,110.81z"/>
	<path class="st4" d="M699.26,54.29l-13.67-0.19c-0.37,0-0.72,0.15-0.95,0.43l-36.95,42.74l8.77,9l43.72-49.93
		C700.87,55.55,700.31,54.3,699.26,54.29z"/>
	<path class="st1" d="M656.3,114.35l-8.7,9.77l17.37,19.04c0.21,0.23,0.5,0.36,0.81,0.36h14.64c0.96,0,1.46-1.14,0.81-1.84
		L656.3,114.35z"/>
	<path class="st1" d="M203.92,182.8c-0.94,0-1.88-0.37-2.59-1.1l-52.31-53.78c-1.39-1.43-1.36-3.72,0.07-5.11
		c1.43-1.39,3.72-1.36,5.11,0.07l52.31,53.78c1.39,1.43,1.36,3.72-0.07,5.11C205.74,182.46,204.83,182.8,203.92,182.8z"/>
	<path class="st1" d="M69.14,117.66H53.5c-2,0-3.62-1.62-3.62-3.62s1.62-3.62,3.62-3.62h15.64c2,0,3.62,1.62,3.62,3.62
		S71.14,117.66,69.14,117.66z"/>
	<polygon class="st5" points="179.85,139.84 134.61,165.96 89.37,139.84 89.37,87.6 134.61,61.48 161.81,77.19 171.71,66.51 
		134.04,44.76 74.89,78.91 74.89,147.21 134.04,181.36 193.19,147.21 193.19,78.91 190.81,77.54 179.85,88.82 	"/>
	<polygon class="st5" points="96.51,91.73 96.51,135.72 134.61,157.71 172.7,135.72 172.7,96.17 169.17,99.81 151.85,87.92 
		156.82,82.56 134.61,69.73 	"/>
	<polygon class="st4" points="134.61,69.73 156.82,82.56 161.81,77.19 134.61,61.48 107.91,76.89 102.17,88.46 	"/>
	<polygon class="st4" points="200.42,74.74 196.01,72.19 190.81,77.54 193.19,78.91 193.19,147.21 189.85,149.14 195.05,154.49 
		200.42,151.39 	"/>
	<polygon class="st4" points="179.85,88.82 172.7,96.17 172.7,131.47 179.85,138.83 	"/>
	<polygon class="st4" points="134.04,36.41 123.91,42.26 119.28,53.29 134.04,44.76 171.71,66.51 176.75,61.07 	"/>
	<circle class="st1" cx="46.57" cy="114.05" r="12.47"/>
	<circle class="st4" cx="209.11" cy="184.31" r="9.93"/>
	<path class="st1" d="M208.88,199.9c-0.14,0-0.28,0-0.42-0.01c-4.2-0.11-8.11-1.85-11.01-4.9c-2.89-3.05-4.43-7.04-4.32-11.24
		c0.11-4.2,1.85-8.11,4.9-11.01c3.05-2.9,7.1-4.41,11.25-4.32c4.2,0.11,8.11,1.85,11.01,4.9c2.89,3.05,4.43,7.04,4.32,11.24
		c-0.11,4.2-1.85,8.11-4.9,11.01C216.76,198.37,212.93,199.9,208.88,199.9z M208.86,175.65c-2.19,0-4.26,0.82-5.85,2.34
		c-1.65,1.56-2.59,3.68-2.64,5.95c-0.06,2.27,0.77,4.43,2.33,6.08c1.56,1.65,3.68,2.59,5.95,2.64c2.27,0.08,4.43-0.77,6.08-2.33
		c1.65-1.56,2.59-3.68,2.65-5.95c0.12-4.69-3.59-8.6-8.28-8.72C209.01,175.65,208.94,175.65,208.86,175.65z"/>
	<path class="st1" d="M151.74,105.96c-0.91,0-1.82-0.34-2.53-1.03c-1.43-1.4-1.46-3.69-0.06-5.11l52.41-53.68
		c1.4-1.43,3.69-1.46,5.12-0.06c1.43,1.4,1.46,3.69,0.06,5.12l-52.41,53.68C153.62,105.6,152.68,105.96,151.74,105.96z"/>
	<circle class="st4" cx="208.88" cy="43.47" r="9.93"/>
	<path class="st1" d="M209,59.33c-8.68,0-15.74-7.06-15.74-15.74s7.06-15.74,15.74-15.74s15.74,7.06,15.74,15.74
		S217.68,59.33,209,59.33z M209,35.08c-4.69,0-8.5,3.82-8.5,8.5s3.82,8.5,8.5,8.5s8.5-3.82,8.5-8.5S213.69,35.08,209,35.08z"/>
	<polygon class="st1" points="74.89,147.21 74.89,110.43 67.65,110.43 67.65,151.39 121.1,182.25 116.46,171.21 	"/>
	<polygon class="st1" points="74.89,78.91 119.28,53.29 123.91,42.26 67.65,74.74 67.65,102.55 74.89,102.55 	"/>
	<polygon class="st4" points="153.18,102.19 133.84,91.03 114.51,102.19 114.51,124.51 133.84,135.67 153.18,124.51 	"/>
	<path class="st1" d="M134.04,139.44l-22.85-13.19V99.87l22.85-13.19l22.85,13.19v26.38L134.04,139.44z M118.43,122.08l15.61,9.01
		l15.61-9.01v-18.03l-15.61-9.01l-15.61,9.01V122.08z"/>
</g>
</svg>
