<?xml version="1.0" encoding="UTF-8"?>
<svg id="Layer_1" data-name="Layer 1" xmlns="http://www.w3.org/2000/svg" viewBox="0 0 800 227.74">
  <defs>
    <style>
      .cls-1 {
        fill: #0e6487;
      }

      .cls-1, .cls-2, .cls-3, .cls-4 {
        stroke-width: 0px;
      }

      .cls-2 {
        fill: #fff;
      }

      .cls-3 {
        fill: none;
        opacity: .5;
      }

      .cls-4 {
        fill: #0ad0dd;
      }
    </style>
  </defs>
  <path class="cls-2" d="m116.17,173.1l-15.76-33.59-22.19,9.93c-1.39.62-2.96-8.55-2.96-8.55l13.06-27.15-13.23-28.2,4.63-9.67,21.16,11.76,18.55-38.57,6.52,3.14-18.74,38.95,15,8.34c1.16.64,1.87,1.87,1.86,3.2l-.23,24.02c-.01,1.41.6,1.95-.69,2.53l-16.14,7.31,17.12,37.71-3.82,1.88-4.14-3.05Zm-23.89-50.92l-7.99,16.62,13.05-5.84-5.06-10.78Zm4.05-8.41l7.62,16.23,12.69-5.68.19-19.55-12.75-7.09-7.74,16.09Zm-12.94-27.59l8.98,19.14,5.37-11.16-14.35-7.98Z"/>
  <polygon class="cls-1" points="140.92 157.69 107.02 136.55 112.46 148.49 140.92 165.94 167.91 150.36 162.8 145.06 140.92 157.69"/>
  <polygon class="cls-1" points="140.32 181.36 122.74 171.21 127.38 182.25 140.32 189.71 182.39 165.42 177.22 160.06 140.32 181.36"/>
  <g>
    <path class="cls-2" d="m294.39,80.92c4.61,0,8.54.44,11.78,1.32,3.24.88,5.88,2.27,7.92,4.19,2.03,1.91,3.5,4.38,4.41,7.42.91,3.03,1.36,6.73,1.36,11.1v14.1c0,7.4-1.38,12.97-4.14,16.7-2.76,3.73-4.05,5.2-10.48,6.05l12.32,13.6c.24.3.32.76.23,1.36-.09.61-.56.91-1.41.91h-13.06c-.79,0-1.34-.09-1.64-.27-.3-.18-.61-.45-.91-.82l-12.11-13.51h-22.39c-4.61,0-8.52-.42-11.74-1.27-3.22-.85-5.84-2.23-7.87-4.14-2.03-1.91-3.52-4.4-4.46-7.46-.94-3.06-1.41-6.78-1.41-11.15v-14.1c0-4.37.47-8.07,1.41-11.1.94-3.03,2.43-5.5,4.46-7.42,2.03-1.91,4.65-3.31,7.87-4.19,3.21-.88,7.13-1.32,11.74-1.32h28.12Zm-39.67,37.12c0,2.37.2,4.35.59,5.96.39,1.61,1.05,2.88,1.96,3.82.91.94,2.14,1.61,3.69,2,1.55.4,3.5.59,5.87.59h27.02c2.37,0,4.32-.2,5.87-.59,1.55-.39,2.78-1.06,3.69-2,.91-.94,1.56-2.21,1.96-3.82.39-1.61.59-3.59.59-5.96v-12.1c0-2.37-.2-4.35-.59-5.96-.39-1.61-1.05-2.88-1.96-3.82-.91-.94-2.14-1.61-3.69-2-1.55-.39-3.5-.59-5.87-.59h-27.02c-2.37,0-4.32.2-5.87.59-1.55.39-2.78,1.06-3.69,2-.91.94-1.56,2.21-1.96,3.82-.4,1.61-.59,3.59-.59,5.96v12.1Z"/>
    <path class="cls-2" d="m385.4,80.92c4.61,0,8.54.44,11.78,1.32,3.24.88,5.88,2.27,7.92,4.19,2.03,1.91,3.5,4.38,4.41,7.42.91,3.03,1.36,6.73,1.36,11.1v15.65c0,4.37-.45,8.08-1.36,11.15-.91,3.06-2.38,5.55-4.41,7.46-2.03,1.91-4.67,3.29-7.92,4.14-3.25.85-7.17,1.27-11.78,1.27h-28.12c-4.61,0-8.52-.42-11.74-1.27-3.22-.85-5.84-2.23-7.87-4.14-2.03-1.91-3.52-4.4-4.46-7.46-.94-3.06-1.41-6.78-1.41-11.15v-15.65c0-4.37.47-8.07,1.41-11.1.94-3.03,2.43-5.5,4.46-7.42,2.03-1.91,4.65-3.31,7.87-4.19,3.21-.88,7.13-1.32,11.74-1.32h28.12Zm-39.67,38.67c0,2.37.2,4.35.59,5.96.39,1.61,1.05,2.88,1.96,3.82.91.94,2.14,1.61,3.69,2,1.55.39,3.5.59,5.87.59h27.02c2.37,0,4.32-.2,5.87-.59,1.55-.39,2.78-1.06,3.69-2,.91-.94,1.56-2.21,1.96-3.82.39-1.61.59-3.59.59-5.96v-13.65c0-2.37-.2-4.35-.59-5.96-.39-1.61-1.05-2.88-1.96-3.82-.91-.94-2.14-1.61-3.69-2-1.55-.39-3.5-.59-5.87-.59h-27.02c-2.37,0-4.32.2-5.87.59-1.55.39-2.78,1.06-3.69,2-.91.94-1.56,2.21-1.96,3.82-.4,1.61-.59,3.59-.59,5.96v13.65Z"/>
    <path class="cls-2" d="m474.21,80.92c6.97,0,11.98,1.58,15.01,4.73,3.03,3.16,4.55,7.83,4.55,14.01v5.19c0,5.22-1.06,9.34-3.18,12.38-2.12,3.03-5.58,4.97-10.37,5.82l15.56,19.29c.3.3.39.76.27,1.37-.12.61-.61.91-1.46.91h-11.74c-.79,0-1.34-.09-1.64-.27-.3-.18-.61-.48-.91-.91l-14.38-18.93h-29.39v18.11c0,1.34-.67,2-2,2h-9.83c-1.4,0-2.09-.67-2.09-2v-58.96c0-1.82.91-2.73,2.73-2.73h48.86Zm-37.67,32.48h34.85c3.09,0,5.28-.67,6.55-2,1.28-1.33,1.91-3.37,1.91-6.1v-3.82c0-2.73-.64-4.76-1.91-6.1-1.27-1.33-3.46-2-6.55-2h-33.67c-.79,0-1.18.36-1.18,1.09v18.93Z"/>
    <path class="cls-2" d="m550.97,80.92c4.91,0,9.13.5,12.65,1.5,3.52,1,6.4,2.55,8.64,4.64,2.24,2.09,3.9,4.76,4.96,8.01,1.06,3.25,1.59,7.08,1.59,11.51v12.38c0,4.43-.53,8.27-1.59,11.51-1.06,3.25-2.71,5.91-4.96,8.01-2.24,2.09-5.13,3.64-8.64,4.64s-7.73,1.5-12.65,1.5h-42.58c-1.82,0-2.73-.91-2.73-2.73v-58.23c0-1.82.91-2.73,2.73-2.73h42.58Zm-31.39,49.86c0,.79.39,1.18,1.18,1.18h29.84c2.67,0,4.91-.24,6.73-.73,1.82-.48,3.29-1.27,4.41-2.37,1.12-1.09,1.93-2.55,2.41-4.37.49-1.82.73-4.06.73-6.73v-10.01c0-2.67-.24-4.91-.73-6.73s-1.29-3.28-2.41-4.37c-1.12-1.09-2.59-1.88-4.41-2.37-1.82-.48-4.07-.73-6.73-.73h-29.84c-.79,0-1.18.43-1.18,1.27v35.94Z"/>
    <path class="cls-2" d="m593.01,80.92c.97,0,1.7.36,2.18,1.09l24.29,30.84,23.87-30.84c.49-.73,1.21-1.09,2.18-1.09h11.92c.49,0,.82.2,1,.59.18.4.12.8-.18,1.23l-32.06,40.97v18.91c0,1.34-.67,2-2,2h-9.83c-1.4,0-2.09-.67-2.09-2v-18.91l-32.3-40.97c-.31-.42-.38-.83-.23-1.23.15-.39.5-.59,1.05-.59h12.19Z"/>
    <path class="cls-2" d="m706.49,110.81l-37.52,42.04c-.43.49-.84.82-1.23,1s-.99.27-1.77.27h-13.1c-.79,0-1.23-.29-1.32-.86-.09-.58.07-1.08.5-1.5l37.12-40.63-25.55-27.84c-.36-.42-.52-.92-.45-1.5.06-.58.51-.86,1.37-.86h12.46c.73,0,1.31.11,1.73.32.42.21.82.53,1.18.96l26.58,28.62Z"/>
    <path class="cls-2" d="m757.62,80.92c1.33,0,2,.67,2,2v59.69c0,1.34-.67,2-2,2h-9.83c-1.4,0-2.09-.67-2.09-2v-59.69c0-1.33.7-2,2.09-2h9.83Z"/>
  </g>
  <path class="cls-4" d="m753.03,54.29l-13.67-.19c-.37,0-.72.15-.95.43l-36.95,42.74,8.77,9,43.72-49.93c.7-.8.14-2.04-.92-2.06Z"/>
  <path class="cls-2" d="m710.07,114.35l-8.7,9.77,17.37,19.04c.21.23.5.36.81.36h14.64c.96,0,1.46-1.14.81-1.84l-24.95-27.33Z"/>
  <path class="cls-2" d="m210.2,182.8c-.94,0-1.88-.37-2.59-1.1l-52.31-53.78c-1.39-1.43-1.36-3.72.07-5.11,1.43-1.39,3.72-1.36,5.11.07l52.31,53.78c1.39,1.43,1.36,3.72-.07,5.11-.7.68-1.61,1.02-2.52,1.02Z"/>
  <path class="cls-2" d="m75.42,117.66h-15.64c-2,0-3.62-1.62-3.62-3.62s1.62-3.62,3.62-3.62h15.64c2,0,3.62,1.62,3.62,3.62s-1.62,3.62-3.62,3.62Z"/>
  <polygon class="cls-3" points="186.13 139.84 140.89 165.96 95.65 139.84 95.65 87.6 140.89 61.48 168.09 77.19 177.99 66.51 140.32 44.76 81.17 78.91 81.17 147.21 140.32 181.36 199.47 147.21 199.47 78.91 197.09 77.54 186.13 88.82 186.13 139.84"/>
  <polygon class="cls-3" points="102.79 91.73 102.79 135.72 140.89 157.71 178.98 135.72 178.98 96.17 175.45 99.81 158.14 87.92 163.11 82.56 140.89 69.73 102.79 91.73"/>
  <polygon class="cls-4" points="140.89 69.73 163.11 82.56 168.09 77.19 140.89 61.48 114.2 76.89 108.45 88.46 140.89 69.73"/>
  <polygon class="cls-4" points="206.7 74.74 202.29 72.19 197.09 77.54 199.47 78.91 199.47 147.21 196.13 149.14 201.33 154.49 206.7 151.39 206.7 74.74"/>
  <polygon class="cls-4" points="186.13 88.82 178.98 96.17 178.98 131.47 186.13 138.83 186.13 88.82"/>
  <polygon class="cls-4" points="140.32 36.41 130.2 42.26 125.56 53.29 140.32 44.76 177.99 66.51 183.03 61.07 140.32 36.41"/>
  <circle class="cls-2" cx="52.85" cy="114.05" r="12.47"/>
  <circle class="cls-4" cx="215.4" cy="184.31" r="9.93"/>
  <path class="cls-2" d="m215.16,199.9c-.14,0-.28,0-.42,0-4.2-.11-8.11-1.85-11.01-4.9-2.89-3.05-4.43-7.04-4.32-11.24.11-4.2,1.85-8.11,4.9-11.01,3.05-2.9,7.1-4.41,11.25-4.32,4.2.11,8.11,1.85,11.01,4.9,2.89,3.05,4.43,7.04,4.32,11.24s-1.85,8.11-4.9,11.01c-2.95,2.8-6.78,4.33-10.83,4.33Zm-.02-24.24c-2.19,0-4.26.82-5.85,2.34-1.65,1.56-2.59,3.68-2.64,5.95-.06,2.27.77,4.43,2.33,6.08,1.56,1.65,3.68,2.59,5.95,2.64,2.27.08,4.43-.77,6.08-2.33,1.65-1.56,2.59-3.68,2.65-5.95.12-4.69-3.59-8.6-8.28-8.72-.08,0-.15,0-.23,0Z"/>
  <path class="cls-2" d="m158.02,105.96c-.91,0-1.82-.34-2.53-1.03-1.43-1.4-1.46-3.69-.06-5.11l52.41-53.68c1.4-1.43,3.69-1.46,5.11-.06,1.43,1.4,1.46,3.69.06,5.11l-52.41,53.68c-.71.73-1.65,1.09-2.59,1.09Z"/>
  <circle class="cls-4" cx="215.16" cy="43.47" r="9.93"/>
  <path class="cls-2" d="m215.28,59.33c-8.68,0-15.74-7.06-15.74-15.74s7.06-15.74,15.74-15.74,15.74,7.06,15.74,15.74-7.06,15.74-15.74,15.74Zm0-24.24c-4.69,0-8.5,3.82-8.5,8.5s3.82,8.5,8.5,8.5,8.5-3.82,8.5-8.5-3.82-8.5-8.5-8.5Z"/>
  <polygon class="cls-2" points="81.17 147.21 81.17 110.43 73.94 110.43 73.94 151.39 127.38 182.25 122.74 171.21 81.17 147.21"/>
  <polygon class="cls-2" points="81.17 78.91 125.56 53.29 130.2 42.26 73.94 74.74 73.94 102.55 81.17 102.55 81.17 78.91"/>
  <polygon class="cls-4" points="159.46 102.19 140.13 91.03 120.8 102.19 120.8 124.51 140.13 135.67 159.46 124.51 159.46 102.19"/>
  <path class="cls-2" d="m140.32,139.44l-22.85-13.19v-26.38l22.85-13.19,22.85,13.19v26.38l-22.85,13.19Zm-15.61-17.37l15.61,9.01,15.61-9.01v-18.03l-15.61-9.01-15.61,9.01v18.03Z"/>
</svg>