<?xml version="1.0" encoding="UTF-8"?>
<svg id="Layer_1" data-name="Layer 1" xmlns="http://www.w3.org/2000/svg" viewBox="0 0 800 800">
  <defs>
    <style>
      .cls-1 {
        fill: #0e6487;
      }

      .cls-1, .cls-2, .cls-3, .cls-4 {
        stroke-width: 0px;
      }

      .cls-2 {
        fill: #fff;
      }

      .cls-3 {
        fill: none;
        opacity: .5;
      }

      .cls-4 {
        fill: #0ad0dd;
      }
    </style>
  </defs>
  <path class="cls-2" d="m359.03,524.27l-33.07-70.48-46.56,20.84c-2.91,1.29-6.22-17.95-6.22-17.95l27.41-56.97-27.76-59.16,9.71-20.29,44.39,24.68,38.93-80.93,13.68,6.58-39.32,81.73,31.48,17.51c2.43,1.35,3.93,3.92,3.9,6.71l-.48,50.41c-.03,2.97,1.25,4.1-1.45,5.31l-33.86,15.34,35.92,79.13-8.02,3.94-8.69-6.39Zm-50.12-106.84l-16.77,34.87,27.38-12.25-10.61-22.61Zm8.49-17.65l15.98,34.06,26.63-11.92.39-41.03-26.76-14.88-16.24,33.76Zm-27.16-57.9l18.84,40.17,11.27-23.43-30.11-16.74Z"/>
  <polygon class="cls-1" points="410.95 491.95 339.82 447.59 351.23 472.63 410.95 509.26 467.59 476.56 456.87 465.44 410.95 491.95"/>
  <polygon class="cls-1" points="409.69 541.61 372.8 520.31 382.54 543.46 409.69 559.13 497.96 508.17 487.11 496.91 409.69 541.61"/>
  <path class="cls-2" d="m556.31,544.62c-1.98,0-3.95-.77-5.44-2.3l-109.75-112.85c-2.92-3.01-2.86-7.81.15-10.73,3-2.92,7.81-2.86,10.73.15l109.75,112.85c2.92,3.01,2.86,7.81-.15,10.73-1.47,1.43-3.39,2.15-5.29,2.15Z"/>
  <path class="cls-2" d="m273.52,407.95h-32.82c-4.19,0-7.59-3.4-7.59-7.59s3.4-7.59,7.59-7.59h32.82c4.19,0,7.59,3.4,7.59,7.59s-3.4,7.59-7.59,7.59Z"/>
  <polygon class="cls-3" points="505.81 454.49 410.89 509.29 315.96 454.49 315.96 344.88 410.89 290.07 467.96 323.02 488.73 300.63 409.69 255 285.58 326.65 285.58 469.95 409.69 541.61 533.79 469.95 533.79 326.65 528.8 323.77 505.81 347.43 505.81 454.49"/>
  <polygon class="cls-3" points="330.95 353.53 330.95 445.83 410.89 491.98 490.82 445.83 490.82 362.86 483.41 370.49 447.07 345.54 457.5 334.3 410.89 307.38 330.95 353.53"/>
  <polygon class="cls-4" points="410.89 307.38 457.5 334.3 467.96 323.02 410.89 290.07 354.88 322.41 342.81 346.68 410.89 307.38"/>
  <polygon class="cls-4" points="548.97 317.88 539.71 312.54 528.8 323.77 533.79 326.65 533.79 469.95 526.8 473.99 537.71 485.22 548.97 478.72 548.97 317.88"/>
  <polygon class="cls-4" points="505.81 347.43 490.82 362.86 490.82 436.93 505.81 452.37 505.81 347.43"/>
  <polygon class="cls-4" points="409.69 237.47 388.45 249.73 378.72 272.88 409.69 255 488.73 300.63 499.32 289.21 409.69 237.47"/>
  <circle class="cls-2" cx="226.16" cy="400.36" r="26.16"/>
  <circle class="cls-4" cx="567.22" cy="547.8" r="20.83"/>
  <path class="cls-2" d="m566.72,580.5c-.29,0-.58,0-.88-.01-8.82-.23-17.02-3.88-23.09-10.27-6.07-6.4-9.29-14.78-9.06-23.59.23-8.82,3.88-17.02,10.27-23.09,6.4-6.08,14.9-9.26,23.6-9.06,8.82.23,17.02,3.88,23.09,10.27,6.07,6.4,9.29,14.78,9.06,23.59-.23,8.82-3.88,17.02-10.27,23.09-6.19,5.87-14.22,9.08-22.72,9.08Zm-.04-50.87c-4.59,0-8.93,1.73-12.27,4.9-3.46,3.28-5.43,7.71-5.55,12.48-.12,4.76,1.62,9.29,4.9,12.75s7.71,5.43,12.48,5.55c4.75.17,9.29-1.62,12.75-4.9,3.46-3.28,5.43-7.71,5.55-12.48.26-9.84-7.54-18.04-17.38-18.3-.16,0-.32,0-.48,0Z"/>
  <path class="cls-2" d="m446.83,383.41c-1.91,0-3.83-.72-5.3-2.16-3-2.93-3.06-7.73-.13-10.73l109.97-112.64c2.93-3,7.74-3.06,10.73-.13,3,2.93,3.06,7.73.13,10.73l-109.97,112.64c-1.49,1.52-3.46,2.29-5.43,2.29Z"/>
  <circle class="cls-4" cx="566.73" cy="252.28" r="20.83"/>
  <path class="cls-2" d="m566.98,285.55c-18.21,0-33.02-14.81-33.02-33.02s14.81-33.02,33.02-33.02,33.02,14.81,33.02,33.02-14.81,33.02-33.02,33.02Zm0-50.87c-9.84,0-17.84,8-17.84,17.84s8,17.84,17.84,17.84,17.84-8,17.84-17.84-8-17.84-17.84-17.84Z"/>
  <polygon class="cls-2" points="285.58 469.95 285.58 392.77 270.4 392.77 270.4 478.72 382.54 543.46 372.8 520.31 285.58 469.95"/>
  <polygon class="cls-2" points="285.58 326.65 378.72 272.88 388.45 249.73 270.4 317.88 270.4 376.24 285.58 376.24 285.58 326.65"/>
  <polygon class="cls-4" points="449.85 375.49 409.28 352.08 368.72 375.49 368.72 422.33 409.29 445.75 449.85 422.33 449.85 375.49"/>
  <path class="cls-2" d="m409.69,453.65l-47.94-27.68v-55.35l47.94-27.68,47.93,27.68v55.35l-47.93,27.68Zm-32.76-36.44l32.76,18.91,32.76-18.91v-37.82l-32.76-18.91-32.76,18.91v37.82Z"/>
</svg>